<mxfile host="Electron" agent="Mozilla/5.0 (X11; Linux x86_64) AppleWebKit/537.36 (KHTML, like Gecko) draw.io/25.0.1 Chrome/128.0.6613.186 Electron/32.2.6 Safari/537.36" version="25.0.1">
  <diagram name="Page-1" id="ff44883e-f642-bcb2-894b-16b3d25a3f0b">
    <mxGraphModel dx="3200" dy="1503" grid="1" gridSize="10" guides="1" tooltips="1" connect="1" arrows="1" fold="1" page="1" pageScale="1.5" pageWidth="1169" pageHeight="826" background="none" math="0" shadow="0">
      <root>
        <mxCell id="0" style=";html=1;" />
        <mxCell id="1" style=";html=1;" parent="0" />
        <mxCell id="VskvR7LW6_lDURuBAsjU-4" value="&lt;div style=&quot;color: #bdbdbd;background-color: #262626;font-family: &#39;Droid Sans Mono&#39;, &#39;monospace&#39;, monospace;font-weight: normal;font-size: 16px;line-height: 22px;white-space: pre;&quot;&gt;&lt;div&gt;&lt;span style=&quot;color: #bdbdbd;&quot;&gt;    &lt;/span&gt;&lt;span style=&quot;color: #d0d0d0;&quot;&gt;^( &quot;(B|C|E|F|G|H)&quot; | &lt;/span&gt;&lt;span style=&quot;color: #6c95eb;&quot;&gt;[&lt;/span&gt;&lt;span style=&quot;color: #6c95eb;&quot;&gt;A&lt;/span&gt;&lt;span style=&quot;color: #d0d0d0;&quot;&gt;] |(&lt;/span&gt;&lt;span style=&quot;color: #6c95eb;&quot;&gt;[&lt;/span&gt;&lt;span style=&quot;color: #6c95eb;&quot;&gt;0-9&lt;/span&gt;&lt;span style=&quot;color: #d0d0d0;&quot;&gt;]+(&lt;/span&gt;&lt;span style=&quot;color: #6c95eb;&quot;&gt;\.&lt;/span&gt;&lt;span style=&quot;color: #d0d0d0;&quot;&gt;(&lt;/span&gt;&lt;span style=&quot;color: #6c95eb;&quot;&gt;[&lt;/span&gt;&lt;span style=&quot;color: #6c95eb;&quot;&gt;0-9&lt;/span&gt;&lt;span style=&quot;color: #d0d0d0;&quot;&gt;])+)?) )$&lt;/span&gt;&lt;/div&gt;&lt;br&gt;&lt;/div&gt;" style="text;whiteSpace=wrap;html=1;" vertex="1" parent="1">
          <mxGeometry x="550" y="160" width="560" height="70" as="geometry" />
        </mxCell>
        <mxCell id="VskvR7LW6_lDURuBAsjU-5" value="&lt;font style=&quot;font-size: 72px;&quot;&gt;.&lt;/font&gt;" style="ellipse;whiteSpace=wrap;html=1;aspect=fixed;" vertex="1" parent="1">
          <mxGeometry x="1440" y="120" width="80" height="80" as="geometry" />
        </mxCell>
        <mxCell id="VskvR7LW6_lDURuBAsjU-6" value="&lt;font style=&quot;font-size: 24px;&quot;&gt;|&lt;/font&gt;" style="ellipse;whiteSpace=wrap;html=1;aspect=fixed;" vertex="1" parent="1">
          <mxGeometry x="1200" y="310" width="80" height="80" as="geometry" />
        </mxCell>
        <mxCell id="VskvR7LW6_lDURuBAsjU-7" value="" style="endArrow=classic;html=1;rounded=0;exitX=0;exitY=1;exitDx=0;exitDy=0;" edge="1" parent="1" source="VskvR7LW6_lDURuBAsjU-5" target="VskvR7LW6_lDURuBAsjU-6">
          <mxGeometry width="50" height="50" relative="1" as="geometry">
            <mxPoint x="1450" y="260" as="sourcePoint" />
            <mxPoint x="1500" y="210" as="targetPoint" />
          </mxGeometry>
        </mxCell>
        <mxCell id="VskvR7LW6_lDURuBAsjU-8" value="" style="ellipse;whiteSpace=wrap;html=1;aspect=fixed;" vertex="1" parent="1">
          <mxGeometry x="1590" y="210" width="80" height="80" as="geometry" />
        </mxCell>
        <mxCell id="VskvR7LW6_lDURuBAsjU-9" value="" style="endArrow=classic;html=1;rounded=0;exitX=1;exitY=1;exitDx=0;exitDy=0;" edge="1" parent="1" source="VskvR7LW6_lDURuBAsjU-5" target="VskvR7LW6_lDURuBAsjU-8">
          <mxGeometry width="50" height="50" relative="1" as="geometry">
            <mxPoint x="1450" y="270" as="sourcePoint" />
            <mxPoint x="1500" y="220" as="targetPoint" />
          </mxGeometry>
        </mxCell>
        <mxCell id="VskvR7LW6_lDURuBAsjU-10" value="&lt;font style=&quot;font-size: 24px;&quot;&gt;|&lt;/font&gt;" style="ellipse;whiteSpace=wrap;html=1;aspect=fixed;" vertex="1" parent="1">
          <mxGeometry x="910" y="530" width="80" height="80" as="geometry" />
        </mxCell>
        <mxCell id="VskvR7LW6_lDURuBAsjU-11" value="" style="endArrow=classic;html=1;rounded=0;entryX=1;entryY=0;entryDx=0;entryDy=0;exitX=0;exitY=1;exitDx=0;exitDy=0;" edge="1" parent="1" source="VskvR7LW6_lDURuBAsjU-6" target="VskvR7LW6_lDURuBAsjU-10">
          <mxGeometry width="50" height="50" relative="1" as="geometry">
            <mxPoint x="1230" y="450" as="sourcePoint" />
            <mxPoint x="1280" y="400" as="targetPoint" />
          </mxGeometry>
        </mxCell>
        <mxCell id="VskvR7LW6_lDURuBAsjU-12" value="&lt;font style=&quot;font-size: 24px;&quot;&gt;A&lt;/font&gt;" style="ellipse;whiteSpace=wrap;html=1;aspect=fixed;" vertex="1" parent="1">
          <mxGeometry x="1080" y="650" width="80" height="80" as="geometry" />
        </mxCell>
        <mxCell id="VskvR7LW6_lDURuBAsjU-13" value="&lt;font style=&quot;font-size: 48px;&quot;&gt;.&lt;/font&gt;" style="ellipse;whiteSpace=wrap;html=1;aspect=fixed;" vertex="1" parent="1">
          <mxGeometry x="770" y="650" width="80" height="80" as="geometry" />
        </mxCell>
        <mxCell id="VskvR7LW6_lDURuBAsjU-14" value="&lt;font style=&quot;font-size: 48px;&quot;&gt;&quot;&lt;/font&gt;" style="ellipse;whiteSpace=wrap;html=1;aspect=fixed;" vertex="1" parent="1">
          <mxGeometry x="950" y="750" width="80" height="80" as="geometry" />
        </mxCell>
        <mxCell id="VskvR7LW6_lDURuBAsjU-15" value="&lt;font style=&quot;font-size: 48px;&quot;&gt;.&lt;/font&gt;" style="ellipse;whiteSpace=wrap;html=1;aspect=fixed;" vertex="1" parent="1">
          <mxGeometry x="650" y="750" width="80" height="80" as="geometry" />
        </mxCell>
        <mxCell id="VskvR7LW6_lDURuBAsjU-16" value="&lt;font style=&quot;font-size: 36px;&quot;&gt;&quot;&lt;/font&gt;" style="ellipse;whiteSpace=wrap;html=1;aspect=fixed;" vertex="1" parent="1">
          <mxGeometry x="530" y="860" width="80" height="80" as="geometry" />
        </mxCell>
        <mxCell id="VskvR7LW6_lDURuBAsjU-17" value="&lt;span style=&quot;font-size: 24px;&quot;&gt;|&lt;/span&gt;" style="ellipse;whiteSpace=wrap;html=1;aspect=fixed;" vertex="1" parent="1">
          <mxGeometry x="780" y="850" width="80" height="80" as="geometry" />
        </mxCell>
        <mxCell id="VskvR7LW6_lDURuBAsjU-18" value="&lt;span style=&quot;font-size: 24px;&quot;&gt;|&lt;/span&gt;" style="ellipse;whiteSpace=wrap;html=1;aspect=fixed;" vertex="1" parent="1">
          <mxGeometry x="900" y="940" width="80" height="80" as="geometry" />
        </mxCell>
        <mxCell id="VskvR7LW6_lDURuBAsjU-19" value="&lt;span style=&quot;font-size: 24px;&quot;&gt;|&lt;/span&gt;" style="ellipse;whiteSpace=wrap;html=1;aspect=fixed;" vertex="1" parent="1">
          <mxGeometry x="1020" y="1030" width="80" height="80" as="geometry" />
        </mxCell>
        <mxCell id="VskvR7LW6_lDURuBAsjU-20" value="&lt;span style=&quot;font-size: 24px;&quot;&gt;|&lt;/span&gt;" style="ellipse;whiteSpace=wrap;html=1;aspect=fixed;" vertex="1" parent="1">
          <mxGeometry x="1160" y="1150" width="80" height="80" as="geometry" />
        </mxCell>
        <mxCell id="VskvR7LW6_lDURuBAsjU-23" value="&lt;font style=&quot;font-size: 24px;&quot;&gt;B&lt;/font&gt;" style="ellipse;whiteSpace=wrap;html=1;aspect=fixed;" vertex="1" parent="1">
          <mxGeometry x="660" y="970" width="80" height="80" as="geometry" />
        </mxCell>
        <mxCell id="VskvR7LW6_lDURuBAsjU-24" value="&lt;font style=&quot;font-size: 24px;&quot;&gt;C&lt;/font&gt;" style="ellipse;whiteSpace=wrap;html=1;aspect=fixed;" vertex="1" parent="1">
          <mxGeometry x="780" y="1090" width="80" height="80" as="geometry" />
        </mxCell>
        <mxCell id="VskvR7LW6_lDURuBAsjU-25" value="&lt;font style=&quot;font-size: 24px;&quot;&gt;E&lt;/font&gt;" style="ellipse;whiteSpace=wrap;html=1;aspect=fixed;" vertex="1" parent="1">
          <mxGeometry x="920" y="1190" width="80" height="80" as="geometry" />
        </mxCell>
        <mxCell id="VskvR7LW6_lDURuBAsjU-26" value="&lt;font style=&quot;font-size: 24px;&quot;&gt;G&lt;/font&gt;" style="ellipse;whiteSpace=wrap;html=1;aspect=fixed;" vertex="1" parent="1">
          <mxGeometry x="1060" y="1290" width="80" height="80" as="geometry" />
        </mxCell>
        <mxCell id="VskvR7LW6_lDURuBAsjU-27" value="&lt;font style=&quot;font-size: 24px;&quot;&gt;H&lt;/font&gt;" style="ellipse;whiteSpace=wrap;html=1;aspect=fixed;" vertex="1" parent="1">
          <mxGeometry x="1270" y="1290" width="80" height="80" as="geometry" />
        </mxCell>
        <mxCell id="VskvR7LW6_lDURuBAsjU-28" value="" style="endArrow=classic;html=1;rounded=0;entryX=0.75;entryY=0.059;entryDx=0;entryDy=0;entryPerimeter=0;exitX=0;exitY=1;exitDx=0;exitDy=0;" edge="1" parent="1" source="VskvR7LW6_lDURuBAsjU-17" target="VskvR7LW6_lDURuBAsjU-23">
          <mxGeometry width="50" height="50" relative="1" as="geometry">
            <mxPoint x="1040" y="930" as="sourcePoint" />
            <mxPoint x="1090" y="880" as="targetPoint" />
          </mxGeometry>
        </mxCell>
        <mxCell id="VskvR7LW6_lDURuBAsjU-29" value="" style="endArrow=classic;html=1;rounded=0;exitX=1;exitY=1;exitDx=0;exitDy=0;" edge="1" parent="1" source="VskvR7LW6_lDURuBAsjU-17" target="VskvR7LW6_lDURuBAsjU-18">
          <mxGeometry width="50" height="50" relative="1" as="geometry">
            <mxPoint x="1210" y="880" as="sourcePoint" />
            <mxPoint x="1260" y="830" as="targetPoint" />
          </mxGeometry>
        </mxCell>
        <mxCell id="VskvR7LW6_lDURuBAsjU-30" value="" style="endArrow=classic;html=1;rounded=0;exitX=1;exitY=1;exitDx=0;exitDy=0;entryX=0;entryY=0;entryDx=0;entryDy=0;" edge="1" parent="1" source="VskvR7LW6_lDURuBAsjU-18" target="VskvR7LW6_lDURuBAsjU-19">
          <mxGeometry width="50" height="50" relative="1" as="geometry">
            <mxPoint x="858" y="928" as="sourcePoint" />
            <mxPoint x="917" y="968" as="targetPoint" />
          </mxGeometry>
        </mxCell>
        <mxCell id="VskvR7LW6_lDURuBAsjU-31" value="" style="endArrow=classic;html=1;rounded=0;exitX=1;exitY=1;exitDx=0;exitDy=0;entryX=0;entryY=0;entryDx=0;entryDy=0;" edge="1" parent="1" source="VskvR7LW6_lDURuBAsjU-19" target="VskvR7LW6_lDURuBAsjU-20">
          <mxGeometry width="50" height="50" relative="1" as="geometry">
            <mxPoint x="978" y="1018" as="sourcePoint" />
            <mxPoint x="1042" y="1052" as="targetPoint" />
          </mxGeometry>
        </mxCell>
        <mxCell id="VskvR7LW6_lDURuBAsjU-32" value="" style="endArrow=classic;html=1;rounded=0;exitX=1;exitY=1;exitDx=0;exitDy=0;entryX=0;entryY=0;entryDx=0;entryDy=0;" edge="1" parent="1" source="VskvR7LW6_lDURuBAsjU-20" target="VskvR7LW6_lDURuBAsjU-27">
          <mxGeometry width="50" height="50" relative="1" as="geometry">
            <mxPoint x="1098" y="1108" as="sourcePoint" />
            <mxPoint x="1251.7157287525015" y="1211.715728752502" as="targetPoint" />
          </mxGeometry>
        </mxCell>
        <mxCell id="VskvR7LW6_lDURuBAsjU-34" value="" style="endArrow=classic;html=1;rounded=0;entryX=0.5;entryY=0;entryDx=0;entryDy=0;exitX=0;exitY=1;exitDx=0;exitDy=0;" edge="1" parent="1" source="VskvR7LW6_lDURuBAsjU-18" target="VskvR7LW6_lDURuBAsjU-24">
          <mxGeometry width="50" height="50" relative="1" as="geometry">
            <mxPoint x="1210" y="1190" as="sourcePoint" />
            <mxPoint x="1260" y="1140" as="targetPoint" />
          </mxGeometry>
        </mxCell>
        <mxCell id="VskvR7LW6_lDURuBAsjU-35" value="" style="endArrow=classic;html=1;rounded=0;entryX=0.5;entryY=0;entryDx=0;entryDy=0;exitX=0;exitY=1;exitDx=0;exitDy=0;" edge="1" parent="1" source="VskvR7LW6_lDURuBAsjU-19" target="VskvR7LW6_lDURuBAsjU-25">
          <mxGeometry width="50" height="50" relative="1" as="geometry">
            <mxPoint x="922" y="1018" as="sourcePoint" />
            <mxPoint x="830" y="1100" as="targetPoint" />
          </mxGeometry>
        </mxCell>
        <mxCell id="VskvR7LW6_lDURuBAsjU-36" value="" style="endArrow=classic;html=1;rounded=0;entryX=0.329;entryY=0.017;entryDx=0;entryDy=0;exitX=0;exitY=0.5;exitDx=0;exitDy=0;entryPerimeter=0;" edge="1" parent="1" source="VskvR7LW6_lDURuBAsjU-20" target="VskvR7LW6_lDURuBAsjU-26">
          <mxGeometry width="50" height="50" relative="1" as="geometry">
            <mxPoint x="1042" y="1108" as="sourcePoint" />
            <mxPoint x="970" y="1200" as="targetPoint" />
          </mxGeometry>
        </mxCell>
        <mxCell id="VskvR7LW6_lDURuBAsjU-38" value="" style="endArrow=classic;html=1;rounded=0;entryX=1;entryY=0;entryDx=0;entryDy=0;exitX=0;exitY=1;exitDx=0;exitDy=0;" edge="1" parent="1" source="VskvR7LW6_lDURuBAsjU-10" target="VskvR7LW6_lDURuBAsjU-13">
          <mxGeometry width="50" height="50" relative="1" as="geometry">
            <mxPoint x="1210" y="830" as="sourcePoint" />
            <mxPoint x="1260" y="780" as="targetPoint" />
          </mxGeometry>
        </mxCell>
        <mxCell id="VskvR7LW6_lDURuBAsjU-39" value="" style="endArrow=classic;html=1;rounded=0;entryX=1;entryY=0;entryDx=0;entryDy=0;exitX=0;exitY=1;exitDx=0;exitDy=0;" edge="1" parent="1" source="VskvR7LW6_lDURuBAsjU-13" target="VskvR7LW6_lDURuBAsjU-15">
          <mxGeometry width="50" height="50" relative="1" as="geometry">
            <mxPoint x="932" y="608" as="sourcePoint" />
            <mxPoint x="848" y="672" as="targetPoint" />
          </mxGeometry>
        </mxCell>
        <mxCell id="VskvR7LW6_lDURuBAsjU-40" value="" style="endArrow=classic;html=1;rounded=0;entryX=1;entryY=0;entryDx=0;entryDy=0;exitX=0;exitY=1;exitDx=0;exitDy=0;" edge="1" parent="1" source="VskvR7LW6_lDURuBAsjU-15" target="VskvR7LW6_lDURuBAsjU-16">
          <mxGeometry width="50" height="50" relative="1" as="geometry">
            <mxPoint x="792" y="728" as="sourcePoint" />
            <mxPoint x="728" y="772" as="targetPoint" />
          </mxGeometry>
        </mxCell>
        <mxCell id="VskvR7LW6_lDURuBAsjU-41" value="" style="endArrow=classic;html=1;rounded=0;entryX=0;entryY=0;entryDx=0;entryDy=0;exitX=1;exitY=1;exitDx=0;exitDy=0;" edge="1" parent="1" source="VskvR7LW6_lDURuBAsjU-15" target="VskvR7LW6_lDURuBAsjU-17">
          <mxGeometry width="50" height="50" relative="1" as="geometry">
            <mxPoint x="671" y="828" as="sourcePoint" />
            <mxPoint x="608" y="882" as="targetPoint" />
          </mxGeometry>
        </mxCell>
        <mxCell id="VskvR7LW6_lDURuBAsjU-42" value="" style="endArrow=classic;html=1;rounded=0;entryX=0.017;entryY=0.308;entryDx=0;entryDy=0;exitX=1;exitY=1;exitDx=0;exitDy=0;entryPerimeter=0;" edge="1" parent="1" source="VskvR7LW6_lDURuBAsjU-13" target="VskvR7LW6_lDURuBAsjU-14">
          <mxGeometry width="50" height="50" relative="1" as="geometry">
            <mxPoint x="729" y="828" as="sourcePoint" />
            <mxPoint x="802" y="872" as="targetPoint" />
          </mxGeometry>
        </mxCell>
        <mxCell id="VskvR7LW6_lDURuBAsjU-43" value="" style="endArrow=classic;html=1;rounded=0;exitX=1;exitY=1;exitDx=0;exitDy=0;" edge="1" parent="1" source="VskvR7LW6_lDURuBAsjU-10" target="VskvR7LW6_lDURuBAsjU-12">
          <mxGeometry width="50" height="50" relative="1" as="geometry">
            <mxPoint x="848" y="728" as="sourcePoint" />
            <mxPoint x="961" y="785" as="targetPoint" />
          </mxGeometry>
        </mxCell>
        <mxCell id="VskvR7LW6_lDURuBAsjU-44" value="&lt;font style=&quot;font-size: 24px;&quot;&gt;?&lt;/font&gt;" style="ellipse;whiteSpace=wrap;html=1;aspect=fixed;" vertex="1" parent="1">
          <mxGeometry x="1480" y="410" width="80" height="80" as="geometry" />
        </mxCell>
        <mxCell id="VskvR7LW6_lDURuBAsjU-45" value="&lt;font style=&quot;font-size: 48px;&quot;&gt;.&lt;/font&gt;" style="ellipse;whiteSpace=wrap;html=1;aspect=fixed;" vertex="1" parent="1">
          <mxGeometry x="1460" y="590" width="80" height="80" as="geometry" />
        </mxCell>
        <mxCell id="VskvR7LW6_lDURuBAsjU-46" value="&lt;font style=&quot;font-size: 24px;&quot;&gt;+&lt;/font&gt;" style="ellipse;whiteSpace=wrap;html=1;aspect=fixed;" vertex="1" parent="1">
          <mxGeometry x="1350" y="710" width="80" height="80" as="geometry" />
        </mxCell>
        <mxCell id="VskvR7LW6_lDURuBAsjU-47" value="&lt;font style=&quot;font-size: 18px;&quot;&gt;N&lt;/font&gt;" style="ellipse;whiteSpace=wrap;html=1;aspect=fixed;" vertex="1" parent="1">
          <mxGeometry x="1320" y="890" width="80" height="80" as="geometry" />
        </mxCell>
        <mxCell id="VskvR7LW6_lDURuBAsjU-49" value="&lt;font style=&quot;font-size: 24px;&quot;&gt;+&lt;/font&gt;" style="ellipse;whiteSpace=wrap;html=1;aspect=fixed;" vertex="1" parent="1">
          <mxGeometry x="1600" y="710" width="80" height="80" as="geometry" />
        </mxCell>
        <mxCell id="VskvR7LW6_lDURuBAsjU-50" value="&lt;font style=&quot;font-size: 48px;&quot;&gt;.&lt;/font&gt;" style="ellipse;whiteSpace=wrap;html=1;aspect=fixed;" vertex="1" parent="1">
          <mxGeometry x="1660" y="870" width="80" height="80" as="geometry" />
        </mxCell>
        <mxCell id="VskvR7LW6_lDURuBAsjU-51" value="&lt;font style=&quot;font-size: 48px;&quot;&gt;\.&lt;/font&gt;" style="ellipse;whiteSpace=wrap;html=1;aspect=fixed;" vertex="1" parent="1">
          <mxGeometry x="1520" y="1020" width="80" height="80" as="geometry" />
        </mxCell>
        <mxCell id="VskvR7LW6_lDURuBAsjU-53" value="&lt;font style=&quot;font-size: 18px;&quot;&gt;N&lt;/font&gt;" style="ellipse;whiteSpace=wrap;html=1;aspect=fixed;" vertex="1" parent="1">
          <mxGeometry x="1780" y="1030" width="80" height="80" as="geometry" />
        </mxCell>
        <mxCell id="VskvR7LW6_lDURuBAsjU-54" value="" style="endArrow=classic;html=1;rounded=0;exitX=1;exitY=1;exitDx=0;exitDy=0;entryX=0;entryY=0.5;entryDx=0;entryDy=0;" edge="1" parent="1" source="VskvR7LW6_lDURuBAsjU-6" target="VskvR7LW6_lDURuBAsjU-44">
          <mxGeometry width="50" height="50" relative="1" as="geometry">
            <mxPoint x="1790" y="610" as="sourcePoint" />
            <mxPoint x="1840" y="560" as="targetPoint" />
          </mxGeometry>
        </mxCell>
        <mxCell id="VskvR7LW6_lDURuBAsjU-55" value="" style="endArrow=classic;html=1;rounded=0;entryX=0.5;entryY=0;entryDx=0;entryDy=0;exitX=0.5;exitY=1;exitDx=0;exitDy=0;" edge="1" parent="1" source="VskvR7LW6_lDURuBAsjU-44" target="VskvR7LW6_lDURuBAsjU-45">
          <mxGeometry width="50" height="50" relative="1" as="geometry">
            <mxPoint x="1790" y="610" as="sourcePoint" />
            <mxPoint x="1840" y="560" as="targetPoint" />
          </mxGeometry>
        </mxCell>
        <mxCell id="VskvR7LW6_lDURuBAsjU-58" value="" style="endArrow=classic;html=1;rounded=0;exitX=0;exitY=1;exitDx=0;exitDy=0;" edge="1" parent="1" source="VskvR7LW6_lDURuBAsjU-45" target="VskvR7LW6_lDURuBAsjU-46">
          <mxGeometry width="50" height="50" relative="1" as="geometry">
            <mxPoint x="1790" y="610" as="sourcePoint" />
            <mxPoint x="1840" y="560" as="targetPoint" />
          </mxGeometry>
        </mxCell>
        <mxCell id="VskvR7LW6_lDURuBAsjU-59" value="" style="endArrow=classic;html=1;rounded=0;entryX=1;entryY=0;entryDx=0;entryDy=0;exitX=0.5;exitY=1;exitDx=0;exitDy=0;" edge="1" parent="1" source="VskvR7LW6_lDURuBAsjU-46" target="VskvR7LW6_lDURuBAsjU-47">
          <mxGeometry width="50" height="50" relative="1" as="geometry">
            <mxPoint x="1800" y="620" as="sourcePoint" />
            <mxPoint x="1438" y="747" as="targetPoint" />
          </mxGeometry>
        </mxCell>
        <mxCell id="VskvR7LW6_lDURuBAsjU-60" value="" style="endArrow=classic;html=1;rounded=0;exitX=1;exitY=1;exitDx=0;exitDy=0;entryX=0;entryY=0;entryDx=0;entryDy=0;" edge="1" parent="1" source="VskvR7LW6_lDURuBAsjU-45" target="VskvR7LW6_lDURuBAsjU-49">
          <mxGeometry width="50" height="50" relative="1" as="geometry">
            <mxPoint x="1810" y="630" as="sourcePoint" />
            <mxPoint x="1448" y="757" as="targetPoint" />
          </mxGeometry>
        </mxCell>
        <mxCell id="VskvR7LW6_lDURuBAsjU-61" value="" style="endArrow=classic;html=1;rounded=0;exitX=1;exitY=1;exitDx=0;exitDy=0;entryX=0;entryY=0;entryDx=0;entryDy=0;" edge="1" parent="1" source="VskvR7LW6_lDURuBAsjU-49" target="VskvR7LW6_lDURuBAsjU-50">
          <mxGeometry width="50" height="50" relative="1" as="geometry">
            <mxPoint x="1538" y="668" as="sourcePoint" />
            <mxPoint x="1622" y="732" as="targetPoint" />
          </mxGeometry>
        </mxCell>
        <mxCell id="VskvR7LW6_lDURuBAsjU-62" value="" style="endArrow=classic;html=1;rounded=0;entryX=1;entryY=0;entryDx=0;entryDy=0;exitX=0;exitY=1;exitDx=0;exitDy=0;" edge="1" parent="1" source="VskvR7LW6_lDURuBAsjU-50" target="VskvR7LW6_lDURuBAsjU-51">
          <mxGeometry width="50" height="50" relative="1" as="geometry">
            <mxPoint x="1790" y="850" as="sourcePoint" />
            <mxPoint x="1840" y="800" as="targetPoint" />
          </mxGeometry>
        </mxCell>
        <mxCell id="VskvR7LW6_lDURuBAsjU-63" value="" style="endArrow=classic;html=1;rounded=0;entryX=0.075;entryY=0.325;entryDx=0;entryDy=0;exitX=1;exitY=1;exitDx=0;exitDy=0;entryPerimeter=0;" edge="1" parent="1" source="VskvR7LW6_lDURuBAsjU-50" target="VskvR7LW6_lDURuBAsjU-53">
          <mxGeometry width="50" height="50" relative="1" as="geometry">
            <mxPoint x="1672" y="968" as="sourcePoint" />
            <mxPoint x="1598" y="1042" as="targetPoint" />
          </mxGeometry>
        </mxCell>
      </root>
    </mxGraphModel>
  </diagram>
</mxfile>
